<?xml version="1.0" standalone="no"?>
<!DOCTYPE svg PUBLIC "-//W3C//DTD SVG 20010904//EN"
 "http://www.w3.org/TR/2001/REC-SVG-20010904/DTD/svg10.dtd">
<svg version="1.0" xmlns="http://www.w3.org/2000/svg"
 width="1344.000000pt" height="1344.000000pt" viewBox="0 0 1344.000000 1344.000000"
 preserveAspectRatio="xMidYMid meet">
<metadata>
Created by potrace 1.14, written by Peter Selinger 2001-2017
</metadata>
<g transform="translate(0.000000,1344.000000) scale(0.100000,-0.100000)"
fill="#000000" stroke="none">
<path d="M7250 11198 c-75 -18 -170 -52 -170 -61 0 -6 -3 -8 -6 -4 -16 15
-147 -92 -219 -178 -51 -61 -112 -200 -120 -270 -2 -16 -4 -30 -5 -30 -1 0 -4
-13 -5 -30 -2 -16 -6 -41 -9 -55 -2 -14 -7 -41 -10 -60 -3 -19 -8 -46 -11 -60
-2 -14 -7 -41 -9 -60 -3 -19 -7 -46 -10 -60 -3 -14 -7 -41 -10 -60 -3 -19 -8
-46 -11 -60 -2 -14 -7 -41 -9 -60 -3 -19 -7 -46 -10 -60 -3 -14 -7 -41 -10
-60 -3 -19 -8 -46 -10 -60 -3 -14 -7 -41 -10 -60 -3 -19 -8 -46 -11 -60 -3
-14 -8 -38 -10 -55 -6 -43 -16 -107 -20 -130 -2 -11 -7 -38 -10 -60 -3 -22
-10 -62 -15 -90 -6 -27 -12 -66 -14 -85 -3 -20 -7 -47 -10 -60 -3 -14 -8 -41
-11 -60 -2 -19 -7 -46 -10 -60 -2 -14 -7 -41 -9 -60 -3 -19 -7 -44 -9 -55 -3
-11 -8 -42 -11 -69 -4 -27 -9 -52 -11 -56 -2 -3 -6 -30 -10 -60 -3 -30 -10
-74 -16 -98 -5 -24 -12 -62 -15 -85 -6 -45 -10 -68 -18 -107 -2 -14 -7 -43
-10 -65 -3 -22 -8 -51 -10 -65 -3 -14 -8 -41 -10 -60 -3 -19 -7 -46 -10 -60
-3 -14 -7 -43 -11 -64 -3 -21 -7 -48 -10 -60 -2 -12 -7 -37 -10 -56 -2 -19 -7
-46 -9 -60 -9 -48 -15 -83 -22 -129 -7 -47 -10 -68 -18 -111 -7 -35 -17 -100
-21 -130 -2 -14 -4 -25 -5 -25 -1 0 -4 -13 -5 -30 -2 -16 -6 -41 -9 -55 -2
-14 -7 -41 -10 -60 -3 -19 -8 -48 -11 -65 -10 -59 -17 -100 -21 -120 -2 -11
-8 -49 -14 -85 -5 -36 -12 -78 -15 -95 -14 -77 -25 -143 -30 -180 -11 -71 -16
-100 -20 -115 -2 -8 -6 -35 -9 -60 -4 -25 -9 -58 -12 -75 -4 -16 -8 -41 -9
-55 -2 -14 -4 -25 -5 -25 -1 0 -3 -12 -5 -26 -4 -29 -8 -57 -31 -189 -18 -102
-32 -190 -38 -230 -3 -19 -8 -46 -11 -60 -2 -13 -7 -42 -10 -65 -3 -22 -8 -47
-10 -55 -3 -8 -7 -37 -10 -65 -4 -27 -11 -70 -16 -95 -6 -25 -13 -63 -15 -85
-3 -22 -7 -51 -9 -65 -2 -14 -6 -41 -9 -60 -3 -19 -9 -46 -12 -60 -3 -14 -7
-36 -9 -50 -5 -38 -15 -102 -22 -135 -4 -16 -7 -39 -8 -50 -1 -11 -5 -38 -9
-60 -5 -22 -10 -49 -11 -60 -16 -93 -25 -144 -30 -170 -3 -16 -8 -50 -11 -75
-3 -25 -9 -64 -15 -88 -5 -24 -12 -62 -15 -85 -3 -23 -7 -51 -9 -62 -2 -11 -6
-36 -10 -55 -10 -62 -17 -104 -21 -125 -13 -78 -26 -155 -29 -185 -3 -19 -7
-46 -10 -60 -3 -14 -8 -38 -11 -55 -15 -92 -26 -153 -30 -175 -2 -14 -7 -45
-10 -70 -3 -25 -10 -65 -15 -90 -6 -25 -13 -63 -15 -85 -3 -22 -7 -51 -9 -65
-2 -14 -6 -41 -9 -60 -3 -19 -9 -46 -12 -60 -3 -14 -7 -36 -9 -50 -5 -38 -15
-102 -22 -135 -4 -16 -8 -39 -9 -50 -1 -11 -5 -36 -9 -55 -3 -19 -8 -51 -10
-70 -2 -19 -4 -35 -5 -35 -2 0 -8 -34 -15 -84 -3 -25 -8 -47 -9 -50 -2 -3 -7
-30 -10 -60 -4 -29 -8 -56 -10 -60 -2 -3 -6 -28 -10 -56 -3 -27 -9 -63 -12
-80 -4 -16 -7 -40 -7 -52 -1 -13 -5 -23 -9 -23 -5 0 -4 -9 2 -19 7 -13 7 -22
0 -26 -7 -4 -6 -13 1 -27 9 -16 8 -19 -2 -13 -8 5 -10 4 -5 -3 4 -7 9 -35 12
-64 3 -28 9 -59 15 -69 5 -10 9 -25 9 -33 0 -37 70 -163 125 -225 62 -70 164
-150 193 -151 6 0 12 -5 12 -10 0 -6 3 -9 8 -9 4 1 10 0 15 -1 4 -1 10 -3 15
-5 4 -1 14 -4 22 -8 116 -45 258 -51 385 -15 22 6 45 12 50 13 41 5 160 80
224 139 69 64 161 213 174 283 2 10 7 29 10 43 6 23 11 54 22 125 3 17 7 41 9
55 3 14 8 43 11 65 5 39 9 62 20 115 2 14 7 41 10 60 3 19 10 60 15 90 5 30
11 71 14 90 3 19 15 89 27 155 12 66 23 134 25 150 2 17 6 44 9 60 3 17 8 44
10 60 2 17 7 46 10 65 17 87 35 196 36 210 1 8 5 33 9 55 5 22 12 65 15 95 4
30 9 58 11 61 2 4 6 28 9 55 3 27 9 58 12 69 3 11 7 31 9 45 4 37 13 91 19
120 3 14 7 43 10 65 3 22 8 51 11 65 3 14 7 39 9 55 2 17 6 41 9 55 3 14 12
70 21 125 9 55 18 111 20 125 2 14 7 41 10 60 3 19 10 62 16 95 6 33 13 74 15
90 3 17 9 53 14 80 5 28 12 66 14 85 3 19 8 46 11 60 3 14 7 41 10 60 2 19 7
53 11 75 4 22 7 48 8 58 0 9 3 17 6 17 4 0 6 10 5 21 -1 12 7 65 17 118 10 53
20 114 23 136 3 22 7 51 10 65 9 47 24 135 30 175 3 23 8 52 11 65 2 14 7 41
10 60 2 19 7 42 9 51 3 9 8 34 10 55 5 43 11 81 21 134 4 19 7 45 8 58 0 12 3
22 6 22 4 0 6 9 5 20 -1 11 7 67 17 123 11 56 21 111 22 122 7 45 20 130 21
135 4 17 18 99 21 120 1 14 5 36 8 50 3 13 8 42 11 65 3 22 8 51 11 65 2 14 7
41 10 60 3 19 7 44 9 55 1 11 6 40 10 65 4 24 9 48 12 53 2 4 6 27 8 50 1 23
10 82 20 132 9 49 18 105 21 124 5 38 10 70 24 151 6 30 12 69 15 85 14 83 26
153 31 180 3 17 6 45 7 63 1 17 4 32 7 32 3 0 6 12 7 28 1 29 19 127 23 127 1
0 3 18 5 40 1 22 10 81 19 130 10 50 19 106 22 125 5 37 30 187 39 230 3 14 8
45 11 70 3 25 7 52 9 60 3 8 7 31 10 50 3 19 8 51 11 70 3 19 7 51 10 70 3 19
9 53 15 75 5 22 11 58 13 80 2 22 11 80 21 130 9 49 19 105 21 125 2 19 6 45
9 58 11 62 25 141 30 177 3 23 8 52 11 65 2 14 7 41 10 60 2 19 6 42 9 50 2 8
7 35 10 60 3 25 10 68 15 95 18 95 23 140 22 195 -1 65 -10 139 -19 160 -3 8
-7 22 -9 30 -14 71 -119 231 -192 293 -66 55 -193 120 -272 138 -66 14 -211
19 -260 7z"/>
<path d="M4028 9889 c-46 -9 -101 -25 -123 -34 -55 -23 -175 -104 -175 -117 0
-6 -3 -9 -6 -6 -3 3 -18 -6 -33 -20 -25 -25 -111 -102 -240 -216 -31 -27 -66
-60 -78 -74 -13 -14 -23 -22 -23 -18 0 4 -11 -3 -24 -16 -28 -28 -90 -83 -180
-163 -38 -33 -85 -76 -106 -95 -21 -19 -60 -54 -86 -77 -27 -23 -63 -54 -80
-70 -17 -15 -64 -57 -104 -93 -41 -36 -87 -78 -104 -94 -17 -15 -48 -42 -69
-60 -34 -28 -87 -75 -169 -151 -15 -14 -32 -25 -39 -25 -7 0 -10 -3 -6 -6 3
-3 -8 -18 -26 -32 -18 -15 -53 -47 -79 -71 -26 -24 -55 -49 -65 -56 -10 -7
-41 -35 -70 -61 -28 -27 -75 -69 -104 -94 -29 -25 -72 -63 -95 -85 -23 -22
-55 -50 -71 -62 -15 -12 -54 -46 -85 -75 -31 -29 -78 -71 -103 -93 -65 -56
-164 -145 -198 -177 -16 -16 -30 -28 -33 -28 -2 0 -12 -8 -22 -17 -10 -10 -49
-45 -86 -78 -37 -33 -83 -75 -102 -92 -19 -18 -36 -33 -38 -33 -2 0 -27 -21
-55 -47 -28 -27 -71 -66 -96 -88 -25 -22 -61 -53 -79 -70 -18 -16 -62 -55 -96
-85 -35 -30 -81 -72 -103 -92 -22 -21 -41 -38 -43 -38 -2 0 -12 -8 -22 -17
-10 -10 -54 -49 -97 -88 -43 -38 -96 -86 -116 -105 -21 -19 -46 -42 -57 -50
-32 -25 -86 -75 -101 -93 -15 -19 -7 -29 119 -137 29 -25 72 -63 96 -85 24
-22 64 -58 90 -80 25 -22 65 -58 89 -80 24 -22 67 -60 96 -85 29 -25 57 -50
63 -55 12 -12 168 -151 225 -201 42 -37 64 -56 142 -126 35 -31 88 -78 118
-105 30 -26 66 -59 80 -71 14 -13 51 -46 81 -72 30 -26 67 -59 81 -72 14 -12
54 -48 88 -78 35 -30 78 -68 95 -85 18 -16 61 -55 96 -85 34 -30 80 -71 101
-90 20 -19 63 -57 95 -85 31 -27 69 -61 84 -75 15 -14 51 -45 80 -70 29 -25
67 -58 84 -75 18 -16 63 -57 101 -90 37 -33 83 -73 101 -90 18 -16 50 -44 71
-62 21 -17 64 -56 96 -85 31 -29 76 -70 100 -90 23 -20 59 -53 81 -72 21 -20
43 -36 48 -36 5 0 6 -4 3 -10 -3 -5 -1 -10 4 -10 6 0 29 -17 51 -39 22 -21 40
-37 40 -36 0 2 14 -10 32 -27 17 -16 58 -52 91 -81 33 -29 69 -61 81 -72 12
-11 52 -47 90 -80 38 -33 79 -69 91 -80 122 -115 189 -167 265 -208 56 -29 81
-39 145 -53 6 -1 24 -5 40 -9 41 -10 160 -10 215 0 25 4 51 8 58 8 6 0 12 4
12 9 0 5 4 7 10 3 5 -3 17 -1 27 4 10 5 38 19 63 31 81 38 96 49 176 128 109
108 180 268 186 425 2 37 1 67 -2 67 -3 0 -5 15 -4 34 2 44 -38 164 -82 241
-43 79 -114 151 -318 328 -49 42 -230 204 -277 247 -15 14 -56 50 -90 80 -35
30 -80 69 -99 87 -19 17 -47 42 -61 55 -41 36 -170 150 -198 177 -14 13 -48
42 -75 65 -26 22 -68 59 -92 81 -24 22 -68 62 -98 88 -59 52 -68 60 -172 153
-38 34 -86 77 -108 95 -21 19 -51 45 -66 59 -15 14 -58 52 -95 85 -38 33 -78
69 -91 80 -19 18 -93 83 -160 142 -23 20 -162 145 -203 182 -14 13 -39 34 -55
48 l-29 25 39 35 c83 76 133 120 193 173 35 30 73 64 85 75 12 11 53 47 91 80
37 33 83 74 100 90 18 17 58 52 89 79 31 27 70 61 85 75 16 14 57 51 92 83 35
31 76 67 90 80 14 12 54 48 89 78 34 30 77 69 95 85 18 17 61 55 95 85 35 30
78 69 96 85 17 17 54 49 80 72 27 23 67 58 89 78 96 86 162 145 194 171 18 16
45 40 60 54 27 26 65 60 191 170 40 36 85 76 100 90 14 14 57 52 96 85 38 33
81 71 95 85 15 14 50 45 79 70 76 65 182 170 206 205 22 32 66 113 70 130 2 6
10 29 18 51 19 53 29 122 29 199 -2 263 -182 511 -433 593 -119 39 -216 45
-332 21z"/>
<path d="M9325 9742 c-4 -4 -11 -8 -16 -8 -5 -1 -10 -2 -11 -3 -2 -2 -14 -5
-28 -7 -14 -3 -27 -9 -28 -14 -2 -6 -7 -8 -12 -5 -9 6 -105 -43 -140 -71 -97
-78 -190 -185 -190 -219 0 -8 -4 -15 -9 -15 -5 0 -22 -39 -37 -87 -25 -77 -29
-103 -29 -203 1 -83 6 -130 19 -170 9 -30 20 -62 22 -70 3 -8 4 -16 2 -16 -2
-1 4 -10 13 -20 9 -11 20 -29 23 -41 4 -13 11 -23 16 -23 5 0 11 -8 15 -19 5
-17 99 -118 156 -167 13 -11 71 -63 129 -115 58 -52 132 -116 163 -144 32 -27
77 -68 101 -90 24 -22 65 -59 93 -82 27 -23 63 -55 79 -70 17 -15 58 -53 93
-83 34 -30 77 -68 95 -85 18 -16 58 -52 90 -80 31 -27 69 -61 84 -75 16 -14
54 -47 85 -75 32 -27 74 -65 94 -82 19 -18 40 -33 45 -33 5 0 6 -4 3 -10 -3
-5 -2 -10 2 -10 5 0 22 -12 39 -27 17 -16 61 -55 98 -88 37 -33 83 -75 102
-92 19 -18 34 -31 34 -29 0 3 17 -12 38 -32 20 -20 86 -80 146 -132 60 -52
121 -106 136 -120 85 -76 172 -153 225 -201 33 -30 75 -66 93 -81 17 -15 32
-30 32 -34 0 -8 -21 -28 -105 -99 -32 -27 -68 -59 -79 -71 -12 -11 -55 -49
-95 -85 -41 -35 -87 -75 -102 -89 -14 -14 -55 -50 -90 -82 -142 -125 -174
-154 -200 -178 -15 -14 -46 -41 -69 -60 -23 -19 -66 -57 -95 -85 -30 -27 -67
-60 -82 -72 -15 -12 -49 -41 -74 -65 -25 -24 -73 -66 -105 -94 -33 -29 -71
-62 -85 -75 -25 -24 -111 -101 -159 -142 -113 -100 -189 -167 -216 -192 -45
-41 -61 -55 -209 -185 -71 -63 -142 -126 -156 -140 -15 -14 -48 -44 -75 -67
-27 -23 -65 -56 -84 -73 -19 -17 -66 -59 -104 -93 -39 -34 -77 -70 -85 -79 -9
-10 -19 -18 -23 -18 -12 0 -106 -100 -139 -147 -86 -123 -119 -236 -114 -391
7 -241 131 -434 348 -546 48 -25 87 -44 87 -41 0 2 12 0 27 -6 56 -21 208 -29
283 -14 19 4 43 8 53 8 9 1 17 4 17 7 0 3 9 6 19 7 51 4 174 80 270 167 48 45
58 53 146 131 94 83 146 129 191 170 18 17 51 46 74 65 23 19 56 49 73 65 18
17 64 58 102 91 39 34 82 73 96 85 57 51 108 97 184 164 44 39 85 75 91 80 6
6 41 37 79 70 37 33 77 69 89 80 21 20 138 123 205 181 18 16 48 43 65 59 18
17 59 53 90 80 32 28 70 61 85 75 15 14 58 53 96 86 39 34 82 73 96 85 14 13
52 47 83 74 32 28 70 61 85 75 15 14 58 53 96 86 72 64 104 92 165 147 20 18
71 64 115 102 44 39 97 86 119 105 22 19 54 49 72 65 18 17 60 55 95 85 35 30
74 65 88 78 13 12 49 44 79 70 50 42 129 113 171 152 9 8 50 44 91 80 40 36
81 72 90 80 9 8 45 40 79 70 34 30 85 76 113 103 28 26 54 47 59 47 17 0 9 14
-25 44 -74 68 -180 162 -209 186 -17 14 -47 41 -67 60 -20 19 -51 48 -70 64
-19 15 -55 47 -80 70 -25 22 -79 70 -120 106 -41 36 -84 74 -96 85 -21 20
-148 134 -188 168 -34 30 -139 123 -167 149 -28 26 -160 143 -193 171 -12 10
-52 46 -90 80 -38 34 -85 76 -104 92 -19 17 -47 41 -62 55 -15 14 -58 52 -95
85 -38 33 -76 67 -85 75 -9 8 -54 49 -101 90 -126 112 -161 143 -179 160 -9 8
-47 42 -85 75 -38 33 -77 67 -85 75 -9 8 -49 44 -90 80 -40 36 -94 83 -119
106 -25 22 -91 81 -146 130 -55 49 -118 105 -139 124 -21 19 -44 40 -50 45 -6
6 -45 39 -86 75 -41 36 -81 72 -90 80 -27 26 -113 102 -185 165 -38 33 -76 67
-85 75 -65 61 -170 150 -195 166 -16 10 -32 21 -35 24 -7 9 -88 45 -145 65
-37 14 -86 19 -182 21 -72 1 -134 -1 -138 -4z"/>
</g>
</svg>
